<?xml version="1.0" standalone="no"?>
<!DOCTYPE svg PUBLIC "-//W3C//DTD SVG 20010904//EN"
 "http://www.w3.org/TR/2001/REC-SVG-20010904/DTD/svg10.dtd">
<svg version="1.0" xmlns="http://www.w3.org/2000/svg"
 width="310.000000pt" height="310.000000pt" viewBox="0 0 310.000000 310.000000"
 preserveAspectRatio="xMidYMid meet">
<metadata>
Created by potrace 1.11, written by Peter Selinger 2001-2013
</metadata>
<g transform="translate(0.000000,310.000000) scale(0.100000,-0.100000)"
fill="#000000" stroke="none">
<path d="M115 3081 c-48 -22 -79 -54 -100 -103 -13 -33 -15 -195 -15 -1428 0
-1233 2 -1395 15 -1428 21 -49 52 -81 100 -103 38 -18 100 -19 1435 -19 1335
0 1397 1 1435 19 48 22 79 54 100 103 13 33 15 195 15 1430 0 1333 -1 1395
-19 1433 -22 48 -54 79 -103 100 -33 13 -195 15 -1430 15 -1333 0 -1395 -1
-1433 -19z m513 -981 c46 -20 56 -21 77 -10 14 7 27 11 29 9 6 -7 36 -194 36
-228 0 -49 -22 -37 -55 31 -50 104 -161 168 -290 168 -75 0 -109 -11 -148 -48
-41 -39 -57 -74 -57 -127 0 -108 57 -164 222 -220 204 -69 286 -123 335 -219
22 -42 26 -65 27 -128 0 -66 -5 -85 -32 -141 -38 -77 -83 -119 -172 -161 -60
-29 -73 -31 -175 -31 -119 0 -217 22 -253 55 -23 22 -79 237 -69 264 10 26 22
13 55 -58 41 -87 89 -137 164 -172 85 -38 199 -40 268 -5 58 30 87 57 110 101
38 75 35 138 -11 205 -33 47 -71 69 -201 114 -215 74 -286 120 -334 217 -32
65 -36 164 -10 227 34 80 126 152 223 177 65 16 201 5 261 -20z m620 1 c45
-16 85 -25 88 -20 3 5 13 9 22 9 15 0 20 -20 35 -121 23 -157 11 -179 -38 -74
-47 98 -148 161 -274 172 -62 5 -76 3 -125 -21 -89 -44 -126 -131 -92 -221 28
-71 75 -105 216 -154 162 -56 228 -92 289 -156 89 -94 102 -209 40 -335 -75
-149 -260 -221 -461 -179 -145 30 -188 76 -147 154 l22 41 40 -43 c80 -87 214
-123 331 -89 79 23 149 92 164 161 19 89 -23 181 -101 222 -16 8 -81 32 -145
54 -64 23 -143 55 -175 72 -74 39 -143 114 -161 176 -13 44 -12 47 11 69 23
21 24 27 17 91 l-6 69 41 45 c92 100 256 131 409 78z m510 -1 c182 -21 270
-100 280 -255 4 -58 0 -80 -18 -122 -20 -48 -86 -120 -150 -164 l-23 -15 139
-205 c160 -234 213 -295 270 -304 66 -11 70 -13 50 -33 -13 -13 -34 -17 -94
-17 -66 0 -84 4 -123 27 -60 35 -92 76 -234 296 -81 127 -126 187 -143 193
-14 6 -53 9 -86 7 l-61 -3 -3 -199 c-2 -165 0 -203 13 -222 19 -30 58 -50 113
-59 25 -4 41 -12 39 -18 -5 -15 -417 -17 -417 -2 0 6 19 19 43 30 23 11 47 31
54 45 63 134 68 154 68 250 0 79 -4 102 -23 137 -20 38 -22 56 -22 193 0 90 4
160 11 172 8 15 7 44 -5 113 -9 51 -16 106 -16 123 l0 31 113 4 c61 1 119 4
127 5 8 1 52 -2 98 -8z m320 -28 c9 -9 183 -207 386 -440 203 -232 373 -422
379 -422 13 0 3 696 -12 741 -16 50 -52 80 -113 94 -34 7 -53 17 -53 26 0 12
30 14 172 14 176 0 209 -8 140 -33 -60 -21 -59 -19 -66 -572 -5 -452 -8 -505
-22 -508 -10 -2 -125 123 -330 360 -370 428 -399 459 -410 452 -5 -3 -9 -141
-9 -307 l0 -302 -27 40 -28 40 -5 325 c-5 315 -6 327 -29 377 -13 29 -43 71
-67 93 l-44 40 60 0 c44 0 65 -5 78 -18z"/>
<path d="M1583 2039 c-12 -6 -24 -21 -27 -33 -12 -43 -7 -411 6 -424 15 -15
168 -16 220 -2 188 53 181 356 -11 439 -59 25 -157 36 -188 20z"/>
</g>
</svg>
